<svg width="623" height="670" viewBox="0 0 623 670" fill="none" xmlns="http://www.w3.org/2000/svg">
<g filter="url(#filter0_d_210_120)">
<path d="M295.605 637.999C132.043 559.625 10.6366 326.231 16.1826 109.822C249.402 166.685 326.276 293.832 391.02 580.07C361.637 606.778 339.502 618.817 295.605 637.999Z" fill="url(#paint0_linear_210_120)"/>
<path d="M557.991 355.169C496.655 252.941 296.803 154.895 94.5586 109.822C265.213 177.5 384.204 269.979 503.47 471.027C528.92 434.991 541.11 410.182 557.991 355.169Z" fill="url(#paint1_linear_210_120)"/>
<path d="M585.262 11H19.6016V92.7822C280.257 101 403.151 130.921 585.262 225.678C602.072 158.581 598.5 108.022 585.262 11Z" fill="url(#paint2_linear_210_120)"/>
</g>
<defs>
<filter id="filter0_d_210_120" x="0.382178" y="0.588119" width="622.218" height="668.647" filterUnits="userSpaceOnUse" color-interpolation-filters="sRGB">
<feFlood flood-opacity="0" result="BackgroundImageFix"/>
<feColorMatrix in="SourceAlpha" type="matrix" values="0 0 0 0 0 0 0 0 0 0 0 0 0 0 0 0 0 0 127 0" result="hardAlpha"/>
<feOffset dx="5.20594" dy="10.4119"/>
<feGaussianBlur stdDeviation="10.4119"/>
<feComposite in2="hardAlpha" operator="out"/>
<feColorMatrix type="matrix" values="0 0 0 0 0 0 0 0 0 0 0 0 0 0 0 0 0 0 0.25 0"/>
<feBlend mode="normal" in2="BackgroundImageFix" result="effect1_dropShadow_210_120"/>
<feBlend mode="normal" in="SourceGraphic" in2="effect1_dropShadow_210_120" result="shape"/>
</filter>
<linearGradient id="paint0_linear_210_120" x1="259.335" y1="80.4275" x2="101.301" y2="598.036" gradientUnits="userSpaceOnUse">
<stop offset="0.145833" stop-color="#F47200"/>
<stop offset="0.41983" stop-color="#F47200"/>
<stop offset="0.740559" stop-color="#FF7700" stop-opacity="0.76"/>
<stop offset="0.906248" stop-color="#F47200"/>
<stop offset="1" stop-color="#FF7700"/>
</linearGradient>
<linearGradient id="paint1_linear_210_120" x1="395.261" y1="89.72" x2="331.691" y2="465.954" gradientUnits="userSpaceOnUse">
<stop offset="0.145833" stop-color="#F47200"/>
<stop offset="0.41983" stop-color="#F47200"/>
<stop offset="0.740559" stop-color="#FF7700" stop-opacity="0.76"/>
<stop offset="0.906248" stop-color="#F47200"/>
<stop offset="1" stop-color="#FF7700"/>
</linearGradient>
<linearGradient id="paint2_linear_210_120" x1="393.972" y1="-0.947546" x2="375.541" y2="227.56" gradientUnits="userSpaceOnUse">
<stop offset="0.145833" stop-color="#F47200"/>
<stop offset="0.41983" stop-color="#F47200"/>
<stop offset="0.740559" stop-color="#FF7700" stop-opacity="0.76"/>
<stop offset="0.906248" stop-color="#F47200"/>
<stop offset="1" stop-color="#FF7700"/>
</linearGradient>
</defs>
</svg>
