<svg width="923" height="270" viewBox="0 0 923 270" fill="none" xmlns="http://www.w3.org/2000/svg">
<g filter="url(#filter0_d_210_154)">
<path d="M119.378 257C53.6394 225.5 4.84435 131.696 7.07339 44.7178C100.808 67.572 131.705 118.674 157.726 233.718C145.917 244.452 137.02 249.29 119.378 257Z" fill="url(#paint0_linear_210_154)"/>
<path d="M224.835 143.326C200.183 102.239 119.859 62.8332 38.5742 44.7178C107.163 71.9183 154.987 109.087 202.922 189.892C213.151 175.408 218.05 165.437 224.835 143.326Z" fill="url(#paint1_linear_210_154)"/>
<path d="M235.793 5H8.44531V37.8695C113.207 41.1725 162.6 53.1982 235.793 91.2825C242.549 64.3151 241.113 43.9947 235.793 5Z" fill="url(#paint2_linear_210_154)"/>
</g>
<path d="M278.984 166.174H417.494V172.47H278.984V166.174Z" fill="#FF7700"/>
<path d="M644.145 166.174H917.386V172.47H644.145V166.174Z" fill="#FF7700"/>
<path d="M323.811 112.851C323.895 112.851 323.937 112.893 323.937 112.977L323.811 112.851ZM323.055 112.221L323.811 112.851H323.685L323.055 112.221ZM312.73 98.874C312.73 100.133 313.108 101.392 313.863 102.652C315.29 104.079 316.634 105.548 317.893 107.059L323.055 112.221L322.804 111.969L323.685 112.851L323.937 112.977L325.07 113.984C327.504 116.335 329.603 118.979 331.366 121.917C333.129 124.771 334.01 128.087 334.01 131.864V147.226C334.01 148.905 333.674 150.5 333.003 152.011C332.331 153.606 331.408 154.991 330.233 156.167C329.057 157.342 327.672 158.265 326.077 158.937C324.566 159.608 322.971 159.944 321.293 159.944H308.449C304.839 159.944 301.859 158.769 299.509 156.418L290.443 147.604C288.512 146.429 286.959 144.876 285.784 142.945C284.692 140.931 284.147 138.706 284.147 136.272V118.769H301.901V119.525L305.427 122.924C305.343 122.085 305.007 121.203 304.42 120.28C303.916 119.273 303.244 118.307 302.405 117.384C301.649 116.377 300.81 115.411 299.887 114.488C298.963 113.564 298.04 112.641 297.116 111.718C295.605 110.374 294.052 108.947 292.457 107.436C290.946 105.841 289.561 104.163 288.302 102.4C287.043 100.637 286.036 98.7481 285.28 96.7334C284.525 94.7187 284.147 92.4942 284.147 90.0598V72.3054C284.147 68.6118 285.364 65.5059 287.798 62.9875C290.317 60.3852 293.465 59.0841 297.242 59.0841H310.086C312.52 59.0841 314.703 59.6717 316.634 60.8469C318.564 61.9382 320.117 63.4492 321.293 65.3799L330.233 74.0683C332.751 76.5866 334.01 79.6506 334.01 83.2602V100.259H317.011L312.73 96.1038V98.874ZM299.383 78.2235C299.383 77.1322 299.761 76.2508 300.516 75.5793C301.356 74.8238 302.279 74.446 303.286 74.446C304.965 74.446 306.14 74.9077 306.812 75.8311C307.484 76.6705 307.903 77.7618 308.071 79.105C308.239 80.4481 308.239 81.8751 308.071 83.3862C307.987 84.8132 307.945 86.0724 307.945 87.1637H320.663V72.3054C320.663 69.3673 319.614 66.849 317.515 64.7503C315.5 62.6517 313.024 61.6024 310.086 61.6024H297.242C294.304 61.6024 291.786 62.6517 289.687 64.7503C287.673 66.849 286.665 69.3673 286.665 72.3054V90.0598C286.665 92.6621 287.169 95.0545 288.176 97.2371C289.267 99.4197 290.611 101.434 292.206 103.281C293.8 105.128 295.479 106.891 297.242 108.57C299.089 110.165 300.81 111.76 302.405 113.355C304 114.95 305.301 116.544 306.308 118.139C307.4 119.734 307.945 121.455 307.945 123.302C307.945 124.141 307.987 125.191 308.071 126.45C308.155 127.625 308.113 128.8 307.945 129.976C307.777 131.067 307.4 132.032 306.812 132.872C306.308 133.711 305.385 134.131 304.042 134.131C302.363 134.131 301.188 133.669 300.516 132.746C299.845 131.822 299.425 130.731 299.257 129.472C299.089 128.129 299.047 126.744 299.131 125.317C299.299 123.806 299.383 122.463 299.383 121.287H286.665V136.272C286.665 139.21 287.673 141.728 289.687 143.827C291.786 145.841 294.304 146.849 297.242 146.849H310.086C312.94 146.849 315.416 145.799 317.515 143.701C319.614 141.602 320.663 139.126 320.663 136.272V120.91C320.663 118.307 320.117 115.915 319.026 113.732C318.019 111.55 316.718 109.535 315.123 107.688C313.528 105.841 311.009 103.323 307.567 100.133C304.21 96.9433 301.985 94.5508 300.894 92.9559C299.887 91.3609 299.383 89.682 299.383 87.9192V78.2235ZM399.22 59.0841V59.8396L410.049 70.4166V159.944H392.924L382.095 149.367H381.339V59.0841H399.22ZM383.858 61.6024V146.849H396.701V61.6024H383.858ZM506.75 59.0841V59.8396L517.579 70.4166V159.944H500.455L494.914 154.53L493.025 160.574L485.596 153.27V159.944H468.471L457.643 149.367H456.887V59.0841H471.871L472.123 59.9655L482.826 70.4166L485.47 78.8531C485.638 78.2655 485.806 77.7199 485.974 77.2162C486.142 76.7125 486.31 76.2089 486.478 75.7052L491.766 59.0841H506.75ZM493.529 61.6024L481.819 99.3777L470.108 61.6024H459.405V146.849H472.249V111.592L481.819 142.442L491.389 111.592V146.849H504.232V61.6024H493.529ZM564.921 149.367H564.166V72.3054C564.166 70.4586 564.502 68.7377 565.173 67.1428C565.845 65.5478 566.768 64.1627 567.943 62.9875C569.203 61.8123 570.63 60.8889 572.225 60.2173C573.82 59.4618 575.541 59.0841 577.387 59.0841H590.105C592.539 59.0841 594.722 59.6717 596.653 60.8469C598.667 62.0221 600.262 63.5751 601.438 65.5059L610.252 74.0683C611.427 75.2435 612.35 76.6286 613.022 78.2235C613.777 79.7345 614.155 81.4134 614.155 83.2602V159.944H597.03L592.875 155.915V159.944H575.75L564.921 149.367ZM579.528 104.288V78.2235C579.528 77.2162 579.906 76.3348 580.661 75.5793C581.417 74.8238 582.298 74.446 583.305 74.446H584.187C585.194 74.446 586.076 74.8238 586.831 75.5793C587.587 76.3348 587.964 77.2162 587.964 78.2235V104.288H579.528ZM600.808 72.3054C600.808 69.3673 599.759 66.849 597.66 64.7503C595.561 62.6517 593.043 61.6024 590.105 61.6024H577.387C574.449 61.6024 571.931 62.6517 569.832 64.7503C567.734 66.849 566.684 69.3673 566.684 72.3054V146.849H579.528V117.006H587.964V146.849H600.808V72.3054ZM686.296 59.0841C688.731 59.0841 690.913 59.6717 692.844 60.8469C694.859 62.0221 696.454 63.5751 697.629 65.5059L697.755 65.6318L706.443 74.0683C707.618 75.2435 708.542 76.6286 709.213 78.2235C709.969 79.7345 710.346 81.4134 710.346 83.2602V117.384C710.346 120.658 709.675 123.176 708.332 124.939C707.073 126.702 705.436 127.961 703.421 128.716C701.406 129.472 699.182 129.892 696.747 129.976C694.397 130.06 692.13 130.102 689.948 130.102H689.696V159.944H672.697L661.868 149.367H661.113V59.0841H686.296ZM676.349 104.288V74.446H680.378C681.385 74.446 682.267 74.8238 683.022 75.5793C683.778 76.3348 684.156 77.2162 684.156 78.2235V100.385C684.156 101.392 683.778 102.316 683.022 103.155C682.351 103.911 681.469 104.288 680.378 104.288H676.349ZM663.631 61.6024V146.849H676.349V117.006C678.363 117.006 680.546 117.048 682.896 117.132C685.331 117.132 687.597 116.838 689.696 116.251C691.795 115.663 693.515 114.656 694.859 113.229C696.286 111.718 696.999 109.451 696.999 106.429V72.3054C696.999 69.3673 695.95 66.849 693.851 64.7503C691.753 62.6517 689.234 61.6024 686.296 61.6024H663.631ZM758.455 149.367H757.699V59.0841H783.638C786.073 59.0841 788.255 59.6717 790.186 60.8469C792.201 62.0221 793.796 63.5751 794.971 65.5059L803.785 74.0683C804.96 75.2435 805.884 76.6286 806.555 78.2235C807.311 79.7345 807.689 81.4134 807.689 83.2602V117.258C807.689 119.692 807.143 121.917 806.052 123.932C804.96 125.862 803.365 127.373 801.267 128.465C802.358 133.501 803.533 138.832 804.793 144.456C806.052 149.997 807.227 155.159 808.318 159.944H790.564L786.283 155.789V159.944H769.284L758.455 149.367ZM794.341 72.3054C794.341 69.3673 793.292 66.849 791.193 64.7503C789.095 62.6517 786.576 61.6024 783.638 61.6024H760.218V146.849H772.935V117.006H774.572L781.12 146.849H794.341L787.542 116.251C789.556 115.495 791.193 114.194 792.453 112.347C793.712 110.5 794.341 108.486 794.341 106.303V72.3054ZM781.498 100.385C781.498 101.392 781.12 102.274 780.365 103.029C779.609 103.785 778.728 104.163 777.72 104.163H772.935V74.3201H777.72C778.812 74.3201 779.693 74.7398 780.365 75.5793C781.12 76.3348 781.498 77.2162 781.498 78.2235V100.385ZM861.308 147.604C859.377 146.513 857.782 144.96 856.523 142.945C855.348 140.847 854.76 138.58 854.76 136.146V72.3054C854.76 70.4586 855.096 68.7377 855.767 67.1428C856.439 65.5478 857.362 64.1627 858.538 62.9875C859.797 61.8123 861.224 60.8889 862.819 60.2173C864.414 59.4618 866.135 59.0841 867.982 59.0841H880.699C883.134 59.0841 885.316 59.6717 887.247 60.8469C889.262 62.0221 890.857 63.5751 892.032 65.5059L900.846 74.0683C902.021 75.2435 902.945 76.6286 903.616 78.2235C904.372 79.7345 904.749 81.4134 904.749 83.2602V147.1C904.749 148.863 904.414 150.5 903.742 152.011C903.071 153.606 902.147 154.991 900.972 156.167C899.797 157.342 898.412 158.265 896.817 158.937C895.306 159.608 893.669 159.944 891.906 159.944H879.188C875.662 159.944 872.682 158.727 870.248 156.292L861.308 147.604ZM878.559 130.228C878.559 131.319 878.181 132.242 877.425 132.998C876.754 133.669 875.872 134.005 874.781 134.005H873.9C872.808 134.005 871.885 133.669 871.129 132.998C870.458 132.242 870.122 131.319 870.122 130.228V78.2235C870.122 77.1322 870.458 76.2088 871.129 75.4533C871.885 74.6978 872.808 74.3201 873.9 74.3201H874.781C875.872 74.3201 876.754 74.6978 877.425 75.4533C878.181 76.2088 878.559 77.1322 878.559 78.2235V130.228ZM891.402 72.3054C891.402 69.3673 890.353 66.849 888.254 64.7503C886.156 62.6517 883.637 61.6024 880.699 61.6024H867.982C865.043 61.6024 862.525 62.6517 860.426 64.7503C858.328 66.849 857.279 69.3673 857.279 72.3054V136.146C857.279 139.084 858.328 141.602 860.426 143.701C862.525 145.799 865.043 146.849 867.982 146.849H880.699C883.637 146.849 886.156 145.799 888.254 143.701C890.353 141.602 891.402 139.084 891.402 136.146V72.3054Z" fill="black"/>
<path d="M284.88 191.978C284.92 191.778 284.94 191.505 284.94 191.158C284.94 190.958 284.927 190.765 284.9 190.578C284.873 190.378 284.827 190.205 284.76 190.058C284.693 189.898 284.593 189.778 284.46 189.698C284.327 189.605 284.153 189.558 283.94 189.558C283.7 189.558 283.48 189.611 283.28 189.718C283.08 189.825 282.9 189.965 282.74 190.138C282.593 190.298 282.473 190.491 282.38 190.718C282.3 190.931 282.26 191.158 282.26 191.398C282.26 191.745 282.347 192.011 282.52 192.198C282.707 192.385 282.947 192.538 283.24 192.658C283.533 192.778 283.867 192.878 284.24 192.958C284.613 193.038 285 193.131 285.4 193.238C285.733 193.331 286.067 193.451 286.4 193.598C286.733 193.745 287.027 193.945 287.28 194.198C287.547 194.438 287.76 194.758 287.92 195.158C288.08 195.545 288.16 196.031 288.16 196.618C288.16 197.458 287.993 198.165 287.66 198.738C287.327 199.311 286.867 199.778 286.28 200.138C285.693 200.498 284.993 200.758 284.18 200.918C283.38 201.078 282.507 201.158 281.56 201.158C280.6 201.158 279.813 201.098 279.2 200.978C278.6 200.845 278.127 200.705 277.78 200.558C277.367 200.385 277.06 200.185 276.86 199.958L277.54 197.218H281.06C281.047 197.338 281.033 197.505 281.02 197.718C281.007 197.918 281 198.078 281 198.198C281 198.358 281.02 198.525 281.06 198.698C281.1 198.871 281.16 199.031 281.24 199.178C281.333 199.325 281.46 199.445 281.62 199.538C281.78 199.631 281.98 199.678 282.22 199.678C282.487 199.678 282.72 199.618 282.92 199.498C283.133 199.378 283.307 199.231 283.44 199.058C283.587 198.871 283.693 198.671 283.76 198.458C283.84 198.231 283.88 198.011 283.88 197.798C283.88 197.505 283.807 197.258 283.66 197.058C283.527 196.858 283.34 196.691 283.1 196.558C282.86 196.411 282.58 196.291 282.26 196.198C281.953 196.091 281.633 195.985 281.3 195.878C280.98 195.785 280.64 195.671 280.28 195.538C279.933 195.405 279.613 195.218 279.32 194.978C279.027 194.738 278.78 194.438 278.58 194.078C278.393 193.705 278.3 193.231 278.3 192.658C278.3 191.805 278.513 191.091 278.94 190.518C279.38 189.931 279.927 189.458 280.58 189.098C281.247 188.738 281.973 188.485 282.76 188.338C283.547 188.178 284.293 188.098 285 188.098C285.933 188.098 286.733 188.211 287.4 188.438C288.08 188.651 288.593 188.905 288.94 189.198L288.2 191.978H284.88ZM310.458 200.998H306.138L308.838 188.298H313.178L310.458 200.998ZM337.942 191.978C337.982 191.778 338.002 191.505 338.002 191.158C338.002 190.958 337.988 190.765 337.962 190.578C337.935 190.378 337.888 190.205 337.822 190.058C337.755 189.898 337.655 189.778 337.522 189.698C337.388 189.605 337.215 189.558 337.002 189.558C336.762 189.558 336.542 189.611 336.342 189.718C336.142 189.825 335.962 189.965 335.802 190.138C335.655 190.298 335.535 190.491 335.442 190.718C335.362 190.931 335.322 191.158 335.322 191.398C335.322 191.745 335.408 192.011 335.582 192.198C335.768 192.385 336.008 192.538 336.302 192.658C336.595 192.778 336.928 192.878 337.302 192.958C337.675 193.038 338.062 193.131 338.462 193.238C338.795 193.331 339.128 193.451 339.462 193.598C339.795 193.745 340.088 193.945 340.342 194.198C340.608 194.438 340.822 194.758 340.982 195.158C341.142 195.545 341.222 196.031 341.222 196.618C341.222 197.458 341.055 198.165 340.722 198.738C340.388 199.311 339.928 199.778 339.342 200.138C338.755 200.498 338.055 200.758 337.242 200.918C336.442 201.078 335.568 201.158 334.622 201.158C333.662 201.158 332.875 201.098 332.262 200.978C331.662 200.845 331.188 200.705 330.842 200.558C330.428 200.385 330.122 200.185 329.922 199.958L330.602 197.218H334.122C334.108 197.338 334.095 197.505 334.082 197.718C334.068 197.918 334.062 198.078 334.062 198.198C334.062 198.358 334.082 198.525 334.122 198.698C334.162 198.871 334.222 199.031 334.302 199.178C334.395 199.325 334.522 199.445 334.682 199.538C334.842 199.631 335.042 199.678 335.282 199.678C335.548 199.678 335.782 199.618 335.982 199.498C336.195 199.378 336.368 199.231 336.502 199.058C336.648 198.871 336.755 198.671 336.822 198.458C336.902 198.231 336.942 198.011 336.942 197.798C336.942 197.505 336.868 197.258 336.722 197.058C336.588 196.858 336.402 196.691 336.162 196.558C335.922 196.411 335.642 196.291 335.322 196.198C335.015 196.091 334.695 195.985 334.362 195.878C334.042 195.785 333.702 195.671 333.342 195.538C332.995 195.405 332.675 195.218 332.382 194.978C332.088 194.738 331.842 194.438 331.642 194.078C331.455 193.705 331.362 193.231 331.362 192.658C331.362 191.805 331.575 191.091 332.002 190.518C332.442 189.931 332.988 189.458 333.642 189.098C334.308 188.738 335.035 188.485 335.822 188.338C336.608 188.178 337.355 188.098 338.062 188.098C338.995 188.098 339.795 188.211 340.462 188.438C341.142 188.651 341.655 188.905 342.002 189.198L341.262 191.978H337.942ZM371.185 189.818H367.965L365.585 200.998H361.265L363.645 189.818H360.465L360.825 188.298H371.525L371.185 189.818ZM390.198 188.298H398.618L398.298 189.818H394.218L393.378 193.678H396.798L396.478 195.178H393.058L392.138 199.458H396.218L395.918 200.998H387.498L390.198 188.298ZM429.637 200.998H425.197L427.037 192.358L422.297 200.998H419.577L418.677 192.058L416.757 200.998H414.957L417.657 188.298H422.757L423.377 195.458L427.217 188.298H432.357L429.637 200.998ZM485.14 200.998H480.7L482.54 192.358L477.8 200.998H475.08L474.18 192.058L472.26 200.998H470.46L473.16 188.298H478.26L478.88 195.458L482.72 188.298H487.86L485.14 200.998ZM515.815 200.998H511.135L510.855 197.818H507.155L505.735 200.998H503.795L509.695 188.298H514.435L515.815 200.998ZM507.815 196.358H510.715L510.255 190.918L507.815 196.358ZM544.826 200.998H540.146L537.926 191.818L535.966 200.998H534.166L536.866 188.298H541.646L543.746 197.598L545.726 188.298H547.566L544.826 200.998ZM575.518 200.998H570.838L570.558 197.818H566.858L565.438 200.998H563.497L569.398 188.298H574.138L575.518 200.998ZM567.518 196.358H570.418L569.958 190.918L567.518 196.358ZM594.149 196.298H597.909C597.909 196.338 597.889 196.438 597.849 196.598C597.822 196.745 597.789 196.925 597.749 197.138C597.709 197.351 597.669 197.585 597.629 197.838C597.602 198.091 597.589 198.325 597.589 198.538C597.589 198.671 597.602 198.811 597.629 198.958C597.655 199.105 597.702 199.245 597.769 199.378C597.835 199.498 597.929 199.605 598.049 199.698C598.182 199.778 598.342 199.818 598.529 199.818C598.875 199.818 599.149 199.678 599.349 199.398C599.562 199.105 599.749 198.578 599.909 197.818L601.929 188.298H606.269L604.309 197.478C604.135 198.265 603.835 198.905 603.409 199.398C602.982 199.878 602.489 200.251 601.929 200.518C601.382 200.785 600.795 200.958 600.169 201.038C599.542 201.131 598.942 201.178 598.369 201.178C597.702 201.178 597.129 201.131 596.649 201.038C596.169 200.958 595.742 200.838 595.369 200.678C595.009 200.518 594.682 200.325 594.389 200.098C594.095 199.858 593.802 199.598 593.509 199.318L594.149 196.298ZM625.766 188.298H634.186L633.866 189.818H629.786L628.946 193.678H632.366L632.046 195.178H628.626L627.706 199.458H631.786L631.486 200.998H623.066L625.766 188.298ZM665.204 200.998H660.764L662.604 192.358L657.864 200.998H655.144L654.244 192.058L652.324 200.998H650.524L653.224 188.298H658.324L658.944 195.458L662.784 188.298H667.924L665.204 200.998ZM687.499 188.298H695.919L695.599 189.818H691.519L690.679 193.678H694.099L693.779 195.178H690.359L689.439 199.458H693.519L693.219 200.998H684.799L687.499 188.298ZM722.918 200.998H718.238L716.018 191.818L714.058 200.998H712.258L714.958 188.298H719.738L721.838 197.598L723.818 188.298H725.658L722.918 200.998ZM770.177 195.518C770.577 195.518 770.91 195.351 771.177 195.018C771.457 194.685 771.684 194.278 771.857 193.798C772.044 193.318 772.177 192.818 772.257 192.298C772.337 191.778 772.377 191.325 772.377 190.938C772.377 190.578 772.317 190.278 772.197 190.038C772.077 189.785 771.817 189.658 771.417 189.658H770.517L769.257 195.518H770.177ZM768.977 196.798L768.077 200.998H763.757L766.457 188.298H771.077C771.837 188.298 772.53 188.338 773.157 188.418C773.784 188.498 774.324 188.658 774.777 188.898C775.23 189.138 775.584 189.485 775.837 189.938C776.09 190.378 776.217 190.971 776.217 191.718C776.217 192.411 776.104 193.071 775.877 193.698C775.664 194.311 775.31 194.851 774.817 195.318C774.337 195.771 773.71 196.131 772.937 196.398C772.164 196.665 771.224 196.798 770.117 196.798H768.977ZM805.609 191.318C805.609 192.105 805.389 192.831 804.949 193.498C804.509 194.165 803.783 194.671 802.769 195.018L805.089 200.998H800.629L798.869 195.458H798.649L797.469 200.998H793.149L795.849 188.298H801.109C801.723 188.298 802.303 188.338 802.849 188.418C803.396 188.485 803.869 188.631 804.269 188.858C804.683 189.071 805.009 189.378 805.249 189.778C805.489 190.165 805.609 190.678 805.609 191.318ZM799.849 194.178C800.196 194.178 800.489 194.065 800.729 193.838C800.983 193.598 801.183 193.311 801.329 192.978C801.489 192.645 801.603 192.291 801.669 191.918C801.736 191.531 801.769 191.198 801.769 190.918C801.769 190.571 801.709 190.278 801.589 190.038C801.469 189.785 801.209 189.658 800.809 189.658H799.909L798.909 194.178H799.849ZM831.211 188.098C832.357 188.098 833.284 188.245 833.991 188.538C834.711 188.831 835.277 189.285 835.691 189.898C835.957 190.311 836.164 190.778 836.311 191.298C836.457 191.818 836.531 192.418 836.531 193.098C836.531 193.685 836.477 194.271 836.371 194.858C836.264 195.445 836.111 196.011 835.911 196.558C835.724 197.091 835.491 197.598 835.211 198.078C834.944 198.545 834.644 198.958 834.311 199.318C833.684 199.998 832.957 200.478 832.131 200.758C831.317 201.025 830.311 201.158 829.111 201.158C827.951 201.158 827.017 201.038 826.311 200.798C825.604 200.558 825.044 200.171 824.631 199.638C824.337 199.265 824.104 198.791 823.931 198.218C823.771 197.645 823.691 196.925 823.691 196.058C823.691 194.578 823.951 193.258 824.471 192.098C825.004 190.925 825.757 189.998 826.731 189.318C827.317 188.905 827.971 188.598 828.691 188.398C829.411 188.198 830.251 188.098 831.211 188.098ZM828.951 199.758C829.257 199.758 829.544 199.625 829.811 199.358C830.091 199.078 830.344 198.711 830.571 198.258C830.811 197.791 831.024 197.265 831.211 196.678C831.411 196.091 831.577 195.485 831.711 194.858C831.844 194.231 831.944 193.611 832.011 192.998C832.091 192.371 832.131 191.805 832.131 191.298C832.131 190.605 832.057 190.131 831.911 189.878C831.777 189.611 831.577 189.478 831.311 189.478C831.004 189.478 830.711 189.611 830.431 189.878C830.151 190.145 829.884 190.505 829.631 190.958C829.391 191.398 829.171 191.911 828.971 192.498C828.784 193.071 828.617 193.665 828.471 194.278C828.337 194.891 828.231 195.498 828.151 196.098C828.084 196.698 828.051 197.251 828.051 197.758C828.051 198.518 828.131 199.045 828.291 199.338C828.464 199.618 828.684 199.758 828.951 199.758ZM860.983 196.198L859.963 200.998H855.623L856.723 195.858L854.763 188.298H859.563L860.923 193.318L863.923 188.298H866.083L860.983 196.198ZM884.709 188.298H893.129L892.809 189.818H888.729L887.889 193.678H891.309L890.989 195.178H887.569L886.649 199.458H890.729L890.429 200.998H882.009L884.709 188.298ZM915.328 193.818L920.268 188.278H922.528L918.048 193.138L921.088 200.998H916.728L914.968 195.418L913.788 200.998H909.468L912.168 188.298H916.508L915.328 193.818Z" fill="black"/>
<defs>
<filter id="filter0_d_210_154" x="0.72296" y="0.815307" width="250.075" height="268.739" filterUnits="userSpaceOnUse" color-interpolation-filters="sRGB">
<feFlood flood-opacity="0" result="BackgroundImageFix"/>
<feColorMatrix in="SourceAlpha" type="matrix" values="0 0 0 0 0 0 0 0 0 0 0 0 0 0 0 0 0 0 127 0" result="hardAlpha"/>
<feOffset dx="2.09235" dy="4.18469"/>
<feGaussianBlur stdDeviation="4.18469"/>
<feComposite in2="hardAlpha" operator="out"/>
<feColorMatrix type="matrix" values="0 0 0 0 0 0 0 0 0 0 0 0 0 0 0 0 0 0 0.25 0"/>
<feBlend mode="normal" in2="BackgroundImageFix" result="effect1_dropShadow_210_154"/>
<feBlend mode="normal" in="SourceGraphic" in2="effect1_dropShadow_210_154" result="shape"/>
</filter>
<linearGradient id="paint0_linear_210_154" x1="104.8" y1="32.9036" x2="41.2836" y2="240.938" gradientUnits="userSpaceOnUse">
<stop offset="0.145833" stop-color="#F47200"/>
<stop offset="0.41983" stop-color="#F47200"/>
<stop offset="0.740559" stop-color="#FF7700" stop-opacity="0.76"/>
<stop offset="0.906248" stop-color="#F47200"/>
<stop offset="1" stop-color="#FF7700"/>
</linearGradient>
<linearGradient id="paint1_linear_210_154" x1="159.431" y1="36.6384" x2="133.881" y2="187.852" gradientUnits="userSpaceOnUse">
<stop offset="0.145833" stop-color="#F47200"/>
<stop offset="0.41983" stop-color="#F47200"/>
<stop offset="0.740559" stop-color="#FF7700" stop-opacity="0.76"/>
<stop offset="0.906248" stop-color="#F47200"/>
<stop offset="1" stop-color="#FF7700"/>
</linearGradient>
<linearGradient id="paint2_linear_210_154" x1="158.91" y1="0.1981" x2="151.503" y2="92.0388" gradientUnits="userSpaceOnUse">
<stop offset="0.145833" stop-color="#F47200"/>
<stop offset="0.41983" stop-color="#F47200"/>
<stop offset="0.740559" stop-color="#FF7700" stop-opacity="0.76"/>
<stop offset="0.906248" stop-color="#F47200"/>
<stop offset="1" stop-color="#FF7700"/>
</linearGradient>
</defs>
</svg>
